<?xml version="1.0" encoding="UTF-8"?>
<svg version="1.1" viewBox="0 0 1544 1184" width="386" height="296" xmlns="http://www.w3.org/2000/svg">
<path transform="translate(786,83)" d="m0 0h151l3 3v276l-1 79-1 4 10-5 15-10 26-14 30-12 26-8 24-6 26-4 30-2h17l33 2 21 2 25 5 35 10 25 10 18 8 23 13 27 18 16 13 10 8 9 9 8 7 7 8 11 12 11 14 10 13 10 15 13 24 8 16 9 20 9 26 6 22 5 27 4 31v47l-5 41-7 33-12 36-10 22-8 16-9 15-10 16-12 17-8 10-11 13-21 21-8 7-12 10-17 13-24 16-25 14-24 11-22 8-24 7-25 5-34 4-19 1h-15l-33-2-29-4-21-5-24-7-25-10-31-15-25-15-7-4 1 26v25l-4 2h-147l-2-1-1-4-1-989 1-13zm338 457-30 5-22 6-18 8-19 10-14 10-10 8-13 12-7 7-9 11-11 15-8 13-12 26-6 19-5 24-1 10v38l3 21 4 17 8 22 8 16 9 16 8 11 8 10 14 15 3 1v2l14 11 15 10 16 9 10 5 30 10 23 5 9 1h40l14-2 19-5 20-7 19-8 14-9 9-6 12-9 13-11 8-8 7-8 10-14 11-18 8-16 7-18 6-27 2-11v-48l-3-17-6-24-11-28-7-13-9-13-7-9-13-15-10-9-13-11-13-9-24-13-15-6-17-5-17-4-23-3z" fill="white"/>
<path transform="translate(605,83)" d="m0 0h150l1 1 1 641v89l-1 276h-151l-1-1v-51l-9 5-11 8-21 12-28 13-36 12-25 6-20 3-19 2-16 1h-35l-26-2-22-3-25-6-26-8-22-9-29-14-13-8-16-10-17-12-13-11-8-7-9-9-8-7-7-8-7-7-9-11-6-7-20-30-12-21-10-19-11-27-9-29-5-23-4-26-2-18v-56l5-35 6-27 5-16 8-23 9-21 14-27 9-15 30-40 9-10 7-7 7-8 12-11 8-7 13-10 13-9 21-14 29-16 28-11 18-6 25-7 26-5 29-3h44l34 3 24 4 33 9 15 5 30 13 28 15 15 10 2 1-1-359zm-221 457-27 5-19 5-16 6-16 8-18 12-13 10-10 9-13 13-7 8-13 18-6 10-11 23-5 15-6 27-3 23v13l3 31 6 27 8 21 10 20 12 18 10 13 15 16 11 9 15 11 20 12 16 7 21 7 26 6 11 1h36l17-2 27-7 24-9 12-6 20-13 12-9 9-7v-2l4-2 11-12 9-11 14-22 9-17 7-18 4-15 4-21v-55l-3-16-6-23-13-30-9-15-10-14-9-10-7-8-7-7-8-7-13-10-11-7-23-12-18-7-28-7-20-3z" fill="white"/>
<path transform="translate(786,83)" d="m0 0h151l-1 2-147 1-1 1v203l-1 629 1 168 3 2 23 1v1h-26l-2-1-1-4-1-989 1-13z" fill="white"/>
<path transform="translate(937,84)" d="m0 0h2l1 2v276l-1 79-1 4 10-5 15-10 26-14 30-12 26-8 24-6 26-4 30-2h17l33 2 21 2 25 5 35 10 25 10 18 8v2l-9-3-7-2v-2l-10-2-4-3-12-3-1-2-8-1-11-4-5-2-21-4-13-1-20-5-15-1h-50l-14 1-24 4-11 2-13 3-10 4-5 1-16 5-8 3-3 2-9 3-9 4-16 8-15 8-7 5-7 4-5 3-4-1z" fill="white"/>
<path transform="translate(583,835)" d="m0 0 1 2-4 8-4 7-8 12-10 13-5 5-5 6h-2l-2 4h-2v2l-8 7-8 8-4 1-5 6h-3v2l-12 6-8 5-9 2-8 3-13 5-24 7-16 2h-46l-11-1-9-3-11-1-5-3-9-2-10-5-10-4-4-2-5-2-4-5-9-3-4-4v-3h-2l-2-3-7-1-10-10v-2l-4-1-8-8v-2l-4-2v-2l-4-2-6-9-2-4h-2l-5-9-3-8-3-6 1-3 8 14 12 17 11 12 7 8 13 11 14 10 20 12 16 7 21 7 26 6 11 1h36l17-2 27-7 24-9 12-6 20-13 12-9 7-6h2v-2l5-4 7-8 9-10 16-25z" fill="white"/>
<path transform="translate(379,384)" d="m0 0h44l34 3 24 4 33 9 15 5 7 3v2h-5v-2l-12-3-7-3-8-1v-2h-9l-7-3-17-2-3-1v-2h-13l-17-3-38-1-27 1-13 1-13 2-10 3-9 1-11 3-8 3-9 2-8 2-11 5-9 3h-4v2l-5 2-7 2-18 10-6 3-3 3-8 3-3 3-9 6-4 4-7 3-14 11-8 7-7 8-3 1-1 2h-2l-2 4-8 7-5 5-5 4-6 7-5 5-8 10h-2l2-4 7-9 8-10 11-11 7-8 12-11 8-7 13-10 13-9 21-14 29-16 28-11 18-6 25-7 26-5z" fill="white"/>
<path transform="translate(1328,813)" d="m0 0h2l-1 5-9 20-7 12-9 14-12 15h-2l-2 4-5 7-8 6-3 4h-2l-1 3-3 3-5 1v2l-8 6-7 2-1 3h-3v2l-8 4-13 5-4 2-8 2-8 3-16 5-11 2-10 3h-49l-6-1-7-1-1-1-10-1-4-1-5-1-6-3-9-2-10-5-5-2-9-4v-2l-7-2-4-3-3-1v-2l-5-2-3-6-7-3v-2h-4l-5-10 20 15 20 12 14 7 30 10 23 5 9 1h40l14-2 19-5 20-7 19-8 14-9 9-6 12-9 13-11 7-7 7-8 10-14 11-18 8-16z" fill="white"/>
<path transform="translate(605,83)" d="m0 0h150l1 1v239h-1l-1-61v-176l-6 1h-26l-13-1h-100l-4 1 1 360-5-1-6-2-3-5-12-7-1-2 6 2 11 7 8 5-1-359z" fill="white"/>
<path transform="translate(937,84)" d="m0 0h2l1 2v276l-1 65h-1l-1-38z" fill="white"/>
<path transform="translate(1312,429)" d="m0 0 12 6 25 17 16 13 10 8 9 9 8 7 7 8 11 12 11 14 10 13 10 15 3 6h-2l-4-6v-2h-3l-3-7-6-5-1-4h-2l-7-10-5-5v-3l-4-2v-3l-3-1-1-2-5-5-9-10-2-1v-2h-2v-2l-5-2-3-3-3-6-7-4-9-7v-2l-3 1-2-1v-2h-2v-2l-4-2-5-5-5-1-4-4v-2l-3-1-2-4-6-2-2-1v-2l-5-1-3-3z" fill="white"/>
<path transform="translate(379,384)" d="m0 0h44l34 3 24 4 33 9 15 5 7 3v2h-5v-2l-12-3-7-3-8-1v-2h-9l-7-3-17-2-3-1v-2h-13l-17-3-38-1-27 1h-13l1-2z" fill="white"/>
<path transform="translate(786,83)" d="m0 0h151l-1 2-147 1-1 1-1 15-1 1-1 49h-1v-55l1-13z" fill="white"/>
<path transform="translate(1163,386)" d="m0 0h12l21 2 25 5 35 10 25 10 18 8v2l-9-3-7-2v-2l-10-2-4-3-12-3-1-2-8-1-11-4-5-2-21-4-13-1-20-5-15-1z" fill="white"/>
<path transform="translate(359,386)" d="m0 0 2 1-1 2-13 2-10 3-9 1-11 3-8 3-9 2-8 2-11 5-9 3h-4v2l-5 2h-6l4-4 28-11 35-10 26-5z" fill="white"/>
<path transform="translate(301,564)" d="m0 0h5l-3 3-15 10-13 10-10 9-12 12-7 8-13 18-6 10-11 23-1-3 5-12 10-18 3-6 3-3 1-4 7-8h2l1-5h2l1-4h3l-1-2h2l2-4h3l1-2 4-3h2l2-4 7-6 1-2 5-2 1-3h2v-2l9-2 1-4h5l1-3z" fill="white"/>
<path transform="translate(786,956)" d="m0 0h1l1 131 3 2 23 1v1h-26l-2-1-1-4v-129z" fill="white"/>
<path transform="translate(1321,653)" d="m0 0 3 3 6 12 5 17 3 9 2 15 2 13v42l-4 25-6 20-2 2 2-10 6-28 1-6v-48l-3-17-6-24-9-23z" fill="white"/>
<path transform="translate(1125,384)" d="m0 0h17l21 1v2l-50 1-14 1-24 4-11 2-9 2-2-2 7-3 26-5 21-2z" fill="white"/>
<path transform="translate(161 1e3)" d="m0 0 4 2 8 8 14 11 14 10 11 7 6 3v2l6 2 5 3 4 3 6 2v2l7 2 4 3 16 8 9 2v3l-10-3-31-15-13-8-16-10-17-12-13-11-8-7z" fill="white"/>
<path transform="translate(57,658)" d="m0 0 2 1-3 17-1 2-2 16-2 20v54l1 18h-2l-2-18v-56l5-35z" fill="white"/>
<path transform="translate(603,1036)" d="m0 0 3 1 1 51h62v1l-13 1h-51l-1-1v-51l-2-1z" fill="white"/>
<path transform="translate(209,683)" d="m0 0 1 3-6 29-2 17v13l3 31 3 15-1 4-4-14-1-2-2-21-1-19 1-22 1-8 2-5 3-13z" fill="white"/>
<path transform="translate(1486,664)" d="m0 0h1l5 29 3 24v47l-2 17-2-3v-11l1-22v-27l-2-24-4-24z" fill="white"/>
<path transform="translate(407,537)" d="m0 0 13 2 21 2 4 2 11 2 14 5-3 1-28-7-20-3h-35l-27 5-9 2-4-1 13-5 12-1 22-3h12z" fill="white"/>
<path transform="translate(625,83)" d="m0 0h130l-1 2-6 2h-26l-13-1v-2h-84z" fill="white"/>
<path transform="translate(464,389)" d="m0 0 13 1 37 10 15 5 7 3v2h-5v-2l-12-3-7-3-8-1v-2h-9l-7-3-17-2-3-1v-2h-4z" fill="white"/>
<path transform="translate(1439,929)" d="m0 0 3 1-8 13-12 17-8 10-11 13-3 2v-3l4-5h2l2-4 7-11 3-1 1-5 3-3h2v-4l5-4 2-4h2l2-4z" fill="white"/>
<path transform="translate(937,1036)" d="m0 0 6 1 5 4-1 2-9-5 1 26v25l-4 2-22-1 1-2h19l4 1-1-52z" fill="white"/>
<path transform="translate(1095,386)" d="m0 0h5l-1 3-24 4-11 2-9 2-2-2 7-3 26-5z" fill="white"/>
<path transform="translate(1328,813)" d="m0 0h2l-1 5-9 20-7 12-9 14-6 7-2-1 10-15 10-16 8-16z" fill="white"/>
<path transform="translate(298,1084)" d="m0 0h10l3 1v2l16 2v2l11 1 3 1h10l-1 3h-8l-28-6-16-5z" fill="white"/>
<path transform="translate(1321,653)" d="m0 0 3 3 6 12 5 17 3 9 1 13-2-1-7-28-9-23z" fill="white"/>
<path transform="translate(1256,404)" d="m0 0 6 1 35 15 2 1v2l-9-3-7-2v-2l-10-2-4-3-12-3z" fill="white"/>
<path transform="translate(1253,574)" d="m0 0 5 2 8 6 2 1v2l5 2 19 19 7 8-1 3-10-11-5-6-8-7-10-9-12-9z" fill="white"/>
<path transform="translate(115,950)" d="m0 0 3 1 3 5v2h2l4 7 5 5 9 11 10 10 6 7 2 1-1 2-8-7-7-8-7-7-9-11-6-7-6-9z" fill="white"/>
<path transform="translate(1162,540)" d="m0 0 15 1 9 3 9 1 2 2 7 1 5 3-3 1-19-5-12-3-15-2z" fill="white"/>
<path transform="translate(209,683)" d="m0 0 1 3-6 29-1 7-3-1 1-12 2-5 3-13z" fill="white"/>
<path transform="translate(301,564)" d="m0 0h5l-3 3-15 10-13 10-2 1 2-6 6-3 1-3h2v-2l9-2 1-4h5l1-3z" fill="white"/>
<path transform="translate(1209,552)" d="m0 0h7l12 6 11 6 8 4v2l5 2 1 2-5-2-24-13-15-6z" fill="white"/>
<path transform="translate(161 1e3)" d="m0 0 4 2 8 8 14 11 12 9v3l-12-9-17-14-9-9z" fill="white"/>
<path transform="translate(603,1036)" d="m0 0 3 1v46h-1l-1-19v-26l-2-1z" fill="white"/>
<path transform="translate(501,397)" d="m0 0 10 2 18 6 7 3v2h-5v-2l-12-3-7-3-8-1v-2h-3z" fill="white"/>
<path transform="translate(1050,1088)" d="m0 0h10l7 1v2l14 2 9 2v1l-14-1-26-6z" fill="white"/>
<path transform="translate(579,430)" d="m0 0 6 2 11 7 8 5 1-4 1 7-5-1-6-2-3-5-12-7z" fill="white"/>
<path transform="translate(115,534)" d="m0 0v3l-2 4h-2l-2 5-3 4-6 11h-2l-2 5-2 1 2-5 11-19z" fill="white"/>
<path transform="translate(1233,397)" d="m0 0 10 2 13 4v2l-5 1-12-4-6-3z" fill="white"/>
<path transform="translate(437,386)" d="m0 0h9l18 2-1 3h-8l-17-3z" fill="white"/>
<path transform="translate(1328,813)" d="m0 0h2l-1 5-9 20-5 8h-2l2-5 8-15z" fill="white"/>
<path transform="translate(1339,773)" d="m0 0h1l-1 9-2 9-5 18-2 2 2-10 6-27z" fill="white"/>
<path transform="translate(966,846)" d="m0 0 3 3 10 15 6 8-2 1-4-4v-2l-3-1-4-8-6-9z" fill="white"/>
<path transform="translate(914,1088)" d="m0 0h19l4 2-2 1-22-1z" fill="white"/>
<path transform="translate(1486,818)" d="m0 0 1 2-5 21-2 3v-13l2-3h2l1-9z" fill="white"/>
<path transform="translate(1321,653)" d="m0 0 3 3 6 12 2 6v4h-2l-9-23z" fill="white"/>
<path transform="translate(369,541)" d="m0 0h3v2l-24 5-4-1 13-5z" fill="white"/>
<path transform="translate(1312,429)" d="m0 0 12 6 6 4-1 3-1-2-6-2-2-1v-2l-5-1-3-3z" fill="white"/>
<path transform="translate(275,1076)" d="m0 0h6l5 3 9 1 3 2v2l-7-1-16-6z" fill="white"/>
<path transform="translate(115,950)" d="m0 0 3 1 3 5v2h2l4 7 5 5v2h-2l-9-11-6-9z" fill="white"/>
<path transform="translate(1e3 893)" d="m0 0 16 12v2l-7-2v-2h-4l-3-6z" fill="white"/>
<path transform="translate(203,767)" d="m0 0h1l3 19 1 9-2-2-3-12-1-2v-10z" fill="white"/>
<path transform="translate(444,543)" d="m0 0 12 2 14 5-3 1-23-6z" fill="white"/>
<path transform="translate(1455,904)" d="m0 0 1 2-9 16-3 3 1-4 8-16z" fill="white"/>
<path transform="translate(1256,404)" d="m0 0 6 1 7 3v2l-9-1-3-1z" fill="white"/>
<path transform="translate(203,708)" d="m0 0h1l-1 14-3-1 1-11z" fill="white"/>
<path transform="translate(298,1084)" d="m0 0h10l3 1v2l4 1-1 2-16-5z" fill="white"/>
<path transform="translate(257,1067)" d="m0 0 7 3 11 3v3l-10-3-8-4z" fill="white"/>
<path transform="translate(1162,540)" d="m0 0 15 1 3 2-1 2-19-3z" fill="white"/>
<path transform="translate(603,1036)" d="m0 0 3 1v14l-2 1v-14l-2-1z" fill="white"/>
<path transform="translate(1471,868)" d="m0 0 1 3-6 14-2-4 2-3h2l1-7z" fill="white"/>
<path transform="translate(1393,989)" d="m0 0 3 1-11 11-1-3 3-1 2-4h2z" fill="white"/>
<path transform="translate(1434,544)" d="m0 0 4 2 6 11h-2l-4-6v-2h-3z" fill="white"/>
<path transform="translate(1072,1092)" d="m0 0 9 1 9 2v1l-14-1-4-1z" fill="white"/>
<path transform="translate(1036,1084)" d="m0 0h8l6 1v3l-10-2z" fill="white"/>
<path transform="translate(133,511)" d="m0 0v3l-9 11h-2l2-4z" fill="white"/>
<path transform="translate(342,1093)" d="m0 0h9l-1 3h-8z" fill="white"/>
<path transform="translate(1408,974)" d="m0 0v3l-7 8-2-2 5-6z" fill="#F7A173"/>
<path transform="translate(1320,834)" d="m0 0 1 2-5 9-3 1 2-5 4-6z" fill="white"/>
<path transform="translate(1476,853)" d="m0 0 1 4-4 11h-1v-7z" fill="white"/>
<path transform="translate(1209,552)" d="m0 0h7l5 3 1 2-5-1-8-3z" fill="white"/>
</svg>

